<?xml version="1.0" standalone="no"?>
<!DOCTYPE svg PUBLIC "-//W3C//DTD SVG 20010904//EN"
 "http://www.w3.org/TR/2001/REC-SVG-20010904/DTD/svg10.dtd">
<svg version="1.0" xmlns="http://www.w3.org/2000/svg"
 width="720.000000pt" height="710.000000pt" viewBox="0 0 720.000000 710.000000"
 preserveAspectRatio="xMidYMid meet">

<g transform="translate(0.000000,710.000000) scale(0.100000,-0.100000)"
fill="#000000" stroke="none">
<path d="M3470 5345 c-219 -60 -379 -242 -411 -465 -10 -73 -10 -97 5 -169 33
-162 132 -302 267 -379 70 -40 193 -72 273 -72 242 1 462 166 530 399 20 70
21 218 1 296 -44 168 -176 309 -350 375 -79 29 -236 37 -315 15z m215 -55 c33
-5 94 -26 135 -47 168 -83 269 -244 270 -433 0 -186 -103 -352 -270 -433 -329
-160 -700 70 -700 434 0 201 129 388 314 453 101 36 155 42 251 26z"/>
<path d="M3497 5259 c-224 -53 -386 -293 -349 -516 47 -285 330 -458 600 -367
288 96 405 430 241 686 -101 157 -308 240 -492 197z m68 -428 c-24 -25 -24
-25 -46 -5 -35 31 -109 131 -124 168 -32 77 -15 70 90 -34 l105 -105 -25 -24z
m235 142 c-26 -53 -65 -99 -193 -230 -133 -135 -165 -163 -188 -163 -63 0 -90
70 -44 115 28 28 40 30 75 10 14 -8 30 -14 37 -15 19 0 73 63 73 85 0 23 263
291 269 274 1 -5 -12 -40 -29 -76z m-124 -248 c21 -33 44 -38 81 -20 71 36
136 -46 83 -103 -38 -40 -70 -30 -148 50 -54 55 -68 75 -60 85 15 19 26 16 44
-12z"/>
<path d="M3595 4790 c3 -5 8 -10 11 -10 2 0 4 5 4 10 0 6 -5 10 -11 10 -5 0
-7 -4 -4 -10z"/>
<path d="M3392 4684 c-33 -23 -26 -65 12 -79 24 -8 31 -6 47 13 19 24 16 49
-9 70 -20 15 -23 15 -50 -4z"/>
<path d="M3760 4680 c-11 -11 -20 -26 -20 -33 0 -18 32 -47 52 -47 17 0 48 31
48 48 0 15 -36 52 -50 52 -5 0 -19 -9 -30 -20z"/>
<path d="M2725 4955 c-5 -2 -22 -6 -37 -9 -66 -15 -137 -112 -138 -189 -1
-142 168 -220 261 -121 33 36 34 119 2 152 -26 25 -30 17 -8 -12 44 -59 -6
-156 -80 -156 -82 0 -137 54 -137 135 0 152 200 215 310 98 43 -46 56 -84 56
-163 1 -66 -4 -85 -32 -143 -36 -73 -78 -114 -162 -155 -49 -24 -66 -27 -155
-27 -110 1 -182 22 -240 70 l-30 25 37 33 c44 39 78 93 78 125 0 31 -26 79
-49 92 -90 48 -178 -70 -147 -196 l7 -32 -50 -7 c-65 -9 -130 0 -266 36 -128
34 -165 35 -221 10 -53 -24 -74 -55 -74 -106 0 -31 6 -47 25 -65 31 -29 85
-32 115 -5 30 27 25 40 -7 16 -68 -54 -141 45 -77 104 44 41 79 41 241 0 137
-35 153 -37 249 -32 98 6 102 5 124 -18 34 -37 137 -82 212 -93 184 -29 363
60 436 216 23 49 27 70 27 152 0 110 -18 156 -82 209 -51 42 -146 70 -188 56z
m-344 -285 c13 -8 19 -21 19 -47 0 -29 -8 -44 -46 -82 -43 -42 -47 -44 -55
-26 -17 44 -10 102 17 134 28 34 36 36 65 21z"/>
<path d="M4372 4941 c-61 -21 -104 -58 -135 -116 -18 -33 -22 -57 -22 -135 0
-87 3 -101 32 -161 91 -185 319 -263 526 -182 46 18 116 63 136 87 9 11 19 13
37 5 48 -18 177 -10 275 16 206 55 230 56 280 5 33 -32 37 -70 12 -92 -34 -30
-59 -30 -92 -2 l-32 26 12 -25 c24 -53 101 -58 139 -10 41 53 15 129 -55 163
-55 27 -90 25 -220 -9 -138 -36 -202 -45 -264 -36 l-49 7 6 63 c6 75 -7 114
-50 150 -40 34 -82 33 -119 -4 -50 -51 -32 -134 42 -193 22 -17 39 -35 39 -39
0 -4 -21 -21 -47 -37 -155 -99 -366 -77 -485 49 -94 100 -114 258 -45 360 55
82 186 108 260 52 46 -35 67 -78 67 -137 0 -38 -6 -52 -33 -82 -28 -31 -42
-37 -84 -41 -45 -5 -54 -2 -83 24 -43 38 -47 98 -11 137 14 14 20 26 13 26 -6
0 -20 -12 -31 -26 -55 -70 -3 -181 89 -191 65 -6 128 28 158 87 12 24 22 56
22 70 0 87 -61 171 -143 195 -64 19 -80 19 -145 -4z m499 -271 c40 -22 64
-111 39 -150 -18 -29 -91 34 -105 93 -5 18 -1 31 14 46 24 24 26 25 52 11z"/>
<path d="M1014 4199 c-3 -6 -2 -15 3 -20 5 -5 1041 -8 2594 -7 2289 3 2584 5
2584 18 0 13 -295 15 -2587 18 -1857 1 -2589 -1 -2594 -9z"/>
<path d="M2557 3913 c-4 -3 -7 -153 -7 -332 0 -179 -4 -332 -9 -339 -4 -7 -21
-17 -37 -22 -20 -6 5 -8 86 -8 78 0 104 3 82 8 -19 4 -39 13 -45 19 -19 19
-37 522 -19 520 4 0 29 -26 56 -57 174 -202 471 -506 485 -497 8 4 11 109 11
330 0 178 3 330 6 339 3 9 14 16 24 16 11 0 22 5 25 10 4 6 -30 10 -95 10 -65
0 -99 -4 -95 -10 3 -5 17 -10 30 -10 14 0 29 -9 35 -20 7 -12 13 -124 17 -278
l6 -257 -64 70 c-35 38 -129 140 -209 225 -217 231 -231 247 -247 270 -15 21
-25 25 -36 13z"/>
<path d="M3330 3880 c-6 -19 -10 -46 -10 -60 l1 -25 17 28 c22 35 71 49 165
45 l72 -3 0 -306 c0 -325 -1 -333 -48 -342 -12 -2 32 -5 98 -5 86 0 111 2 90
9 -55 16 -55 18 -55 347 l0 305 88 -6 c106 -6 121 -11 138 -51 l13 -31 2 43
c5 93 40 82 -279 85 l-282 2 -10 -35z"/>
<path d="M4091 3608 c-62 -172 -122 -327 -132 -345 -13 -21 -32 -34 -57 -41
-31 -8 -18 -10 73 -10 61 0 99 3 85 7 -37 10 -36 58 3 166 l32 90 106 3 106 3
44 -118 c24 -65 43 -126 42 -135 -3 -16 7 -18 90 -17 86 0 90 1 57 13 -59 21
-57 18 -242 500 -40 104 -78 191 -83 193 -6 2 -62 -137 -124 -309z m156 40
c24 -67 41 -123 39 -125 -2 -2 -41 -3 -88 -1 l-84 3 38 123 c21 67 42 122 46
122 4 0 26 -55 49 -122z"/>
<path d="M4855 3906 c-129 -41 -207 -122 -241 -251 -35 -129 5 -277 97 -359
72 -65 138 -89 262 -94 114 -5 218 10 243 35 11 11 14 46 14 147 0 136 5 156
42 156 10 0 18 4 18 9 0 5 -49 9 -110 9 -61 1 -110 -4 -110 -9 0 -5 11 -9 24
-9 44 0 56 -33 56 -150 0 -139 -3 -144 -109 -148 -211 -10 -354 132 -355 353
0 128 55 223 153 269 70 31 207 29 283 -6 56 -26 88 -64 88 -103 0 -9 5 -13
10 -10 6 3 10 39 10 79 l0 72 -83 12 c-106 15 -240 14 -292 -2z"/>
<path d="M1305 3900 c3 -5 16 -10 29 -10 13 0 31 -9 40 -19 9 -10 74 -160 143
-332 69 -173 127 -320 130 -326 11 -28 32 -10 58 50 15 34 77 179 136 322 60
142 116 269 124 282 9 13 24 23 35 23 10 0 22 5 25 10 4 6 -28 10 -90 10 -62
0 -94 -4 -90 -10 3 -5 15 -10 26 -10 12 0 19 -7 19 -20 0 -30 -180 -511 -200
-533 -8 -9 -200 499 -200 531 0 20 10 27 33 23 4 0 7 4 7 9 0 6 -45 10 -116
10 -74 0 -113 -4 -109 -10z"/>
<path d="M2110 3900 c0 -5 8 -10 18 -10 40 0 42 -13 42 -319 0 -163 -3 -306
-6 -318 -3 -12 -18 -26 -33 -32 -19 -7 5 -9 94 -9 81 0 109 3 87 8 -19 4 -39
13 -45 19 -16 16 -23 584 -8 624 7 17 18 27 30 27 11 0 23 5 26 10 4 6 -32 10
-99 10 -64 0 -106 -4 -106 -10z"/>
<path d="M5460 3892 c48 -24 52 -52 48 -362 -4 -280 -8 -305 -50 -313 -13 -2
49 -5 137 -6 88 -2 170 -4 183 -5 35 -4 50 14 57 72 7 55 -8 75 -18 23 -4 -17
-17 -36 -29 -42 -34 -19 -164 -18 -183 1 -19 20 -30 144 -21 233 l8 67 69 0
c78 0 109 -11 109 -40 0 -10 4 -21 9 -24 8 -5 25 113 17 121 -2 3 -13 0 -24
-6 -12 -6 -56 -11 -100 -11 -90 0 -90 0 -88 91 1 24 3 74 4 112 l2 67 69 0
c92 0 120 -11 128 -52 5 -27 7 -29 14 -13 4 11 8 39 8 63 l1 42 -192 0 c-189
-1 -192 -1 -158 -18z"/>
<path d="M6084 3606 c-47 -21 -59 -85 -23 -130 16 -20 29 -26 60 -26 54 0 79
27 79 83 0 68 -53 101 -116 73z"/>
<path d="M1042 3594 c-38 -16 -45 -27 -45 -77 0 -49 29 -77 80 -77 46 0 83 37
83 84 0 61 -58 96 -118 70z"/>
<path d="M1017 2913 c-4 -3 -7 -10 -7 -15 0 -4 1168 -8 2596 -8 2072 0 2595 3
2592 13 -4 9 -532 13 -2590 15 -1421 1 -2588 -1 -2591 -5z"/>
<path d="M1354 2710 c-26 -10 -54 -48 -54 -72 0 -23 35 -58 56 -58 12 0 10 6
-10 21 -32 25 -33 42 -5 70 39 39 114 17 263 -78 123 -80 167 -96 248 -91 62
3 73 7 94 31 44 51 44 108 -1 152 -47 48 -116 39 -144 -20 -19 -40 2 -79 44
-83 l30 -3 -25 13 c-50 27 -26 98 33 98 29 0 67 -45 67 -80 0 -19 -9 -40 -25
-55 -20 -21 -34 -25 -83 -25 -65 0 -131 29 -276 119 -104 65 -162 82 -212 61z"/>
<path d="M5290 2709 c-34 -12 -60 -58 -60 -104 0 -29 8 -45 34 -71 32 -32 38
-34 99 -34 78 0 113 14 260 104 147 89 204 104 245 66 29 -27 28 -44 -5 -70
l-28 -21 25 6 c51 14 63 55 30 98 -46 59 -123 44 -281 -53 -137 -84 -174 -100
-242 -100 -48 0 -62 4 -82 25 -16 15 -25 36 -25 55 0 35 38 80 67 80 29 0 63
-29 63 -54 0 -26 -14 -41 -45 -49 -14 -3 -11 -5 11 -6 37 -1 54 14 54 50 0 41
-9 58 -41 74 -32 17 -43 17 -79 4z"/>
<path d="M3645 2675 l-49 -24 -32 19 c-19 12 -49 20 -76 20 -42 0 -48 -4 -107
-66 -80 -83 -136 -124 -172 -124 -30 0 -55 30 -45 56 8 20 29 17 60 -7 l26
-20 0 30 c0 54 -86 85 -129 47 -31 -28 -42 -89 -22 -128 26 -53 96 -82 195
-81 99 0 171 25 253 88 l57 43 40 -34 c88 -76 207 -108 329 -90 55 8 124 52
135 86 19 55 -28 140 -76 140 -34 0 -82 -38 -82 -65 0 -28 12 -32 30 -10 15
18 46 20 56 4 11 -18 -17 -59 -41 -59 -32 0 -103 50 -165 115 -55 59 -92 85
-121 85 -8 0 -37 -11 -64 -25z"/>
<path d="M4982 2632 c-46 -30 -125 -76 -175 -103 -101 -53 -96 -57 38 -34 95
16 78 29 177 -140 39 -66 72 -121 73 -123 6 -7 195 117 195 128 0 4 -37 25
-83 47 -45 22 -90 47 -99 56 -11 11 -18 44 -23 110 -3 51 -10 98 -13 104 -4 6
-41 -12 -90 -45z"/>
<path d="M2137 2673 c-3 -5 -8 -37 -11 -73 -15 -148 -6 -133 -112 -186 -52
-25 -94 -51 -94 -56 0 -8 178 -128 190 -128 3 0 36 55 74 121 98 170 85 160
181 144 81 -14 143 -18 115 -8 -24 9 -188 102 -263 150 -72 46 -74 47 -80 36z"/>
<path d="M2190 2303 c-52 -92 -96 -172 -98 -178 -6 -24 312 -172 523 -243 322
-109 648 -162 990 -162 476 0 939 108 1360 316 72 36 135 70 142 77 9 9 -9 49
-83 176 -52 90 -96 167 -99 169 -3 3 -71 -26 -153 -66 -243 -117 -442 -182
-696 -227 -554 -99 -1111 -24 -1624 217 -48 23 -104 52 -124 65 -21 12 -39 23
-40 23 -2 -1 -46 -76 -98 -167z m322 -49 c70 -35 87 -88 38 -114 -16 -9 -19
-18 -14 -54 6 -39 4 -46 -19 -61 -18 -12 -36 -15 -57 -10 -36 8 -151 53 -163
64 -4 4 11 48 34 97 22 49 45 99 50 111 8 22 9 22 46 7 21 -9 59 -27 85 -40z
m2302 -9 c34 -26 56 -69 56 -109 0 -34 -7 -46 -44 -82 -52 -49 -110 -64 -171
-44 -100 33 -98 176 2 229 45 24 129 27 157 6z m197 -57 c14 -26 -5 -48 -42
-48 -33 0 -43 13 -35 45 10 38 57 40 77 3z m-2199 -36 c9 -9 56 -260 51 -266
-2 -2 -19 1 -38 7 -23 7 -35 17 -37 31 -2 16 -18 26 -60 41 -55 19 -57 19 -77
1 -16 -14 -26 -16 -48 -9 -15 5 -27 13 -26 17 1 4 41 50 89 103 77 84 90 94
113 88 14 -4 29 -10 33 -13z m1693 -2 c3 -6 3 -19 0 -31 -6 -17 -12 -19 -50
-13 -38 5 -47 3 -69 -19 -33 -33 -33 -71 -1 -102 30 -31 53 -31 98 -1 37 25
77 25 77 1 0 -21 -57 -64 -101 -75 -115 -31 -208 80 -149 178 29 47 75 72 137
72 28 0 55 -5 58 -10z m-1432 -56 c26 -3 62 -16 80 -28 27 -18 32 -29 35 -68
3 -40 -1 -49 -24 -67 -27 -21 -27 -22 -11 -57 22 -45 23 -44 -18 -44 -32 0
-37 4 -51 40 -9 22 -22 41 -30 42 -8 0 -19 1 -26 2 -7 1 -15 -10 -18 -24 -4
-18 -13 -26 -34 -28 -16 -2 -32 0 -36 5 -6 7 29 188 45 231 3 7 13 11 22 8 10
-3 39 -8 66 -12z m1006 -48 c27 -24 32 -64 14 -109 -15 -37 -15 -39 11 -66 23
-24 25 -29 11 -35 -36 -14 -64 -6 -85 25 -31 43 -64 37 -68 -12 -3 -34 -6 -37
-36 -41 l-34 -4 -6 56 c-3 30 -8 87 -12 127 l-6 72 43 4 c80 8 148 1 168 -17z
m-606 -18 c31 -22 35 -53 10 -80 -15 -17 -15 -19 0 -36 18 -19 22 -59 9 -79
-16 -25 -66 -34 -144 -27 -43 4 -81 10 -83 14 -5 8 13 205 21 228 6 21 151 5
187 -20z m317 -3 c0 -23 -4 -25 -47 -25 -67 0 -93 -9 -93 -31 0 -17 8 -19 65
-19 63 0 65 -1 65 -25 0 -24 -2 -25 -65 -25 -63 0 -65 -1 -65 -25 0 -24 2 -25
74 -25 67 0 75 -2 81 -21 4 -11 5 -22 3 -24 -1 -2 -52 -5 -113 -6 l-110 -4 -3
122 -3 122 48 4 c26 2 74 4 106 5 55 2 57 1 57 -23z"/>
<path d="M2427 2224 c-13 -13 -7 -42 9 -48 23 -9 62 -7 68 3 14 22 -58 64 -77
45z"/>
<path d="M2386 2134 c-11 -28 -6 -41 19 -52 35 -16 62 -15 68 2 6 16 -15 37
-55 53 -22 10 -27 9 -32 -3z"/>
<path d="M4695 2198 c-69 -38 -56 -138 19 -138 77 0 113 76 60 125 -29 27 -48
30 -79 13z"/>
<path d="M2731 2058 c-27 -33 -18 -48 28 -48 17 0 22 4 17 16 -3 9 -6 27 -6
40 0 31 -10 30 -39 -8z"/>
<path d="M3034 2014 c-7 -40 4 -54 47 -54 29 0 49 17 49 42 0 19 -19 31 -62
42 -25 6 -28 3 -34 -30z"/>
<path d="M3953 2014 c-15 -6 -17 -42 -4 -62 11 -19 71 -11 85 11 22 35 -35 70
-81 51z"/>
<path d="M3344 1995 c-4 -8 -4 -22 0 -30 8 -21 75 -20 83 1 7 20 -4 30 -45 38
-24 4 -34 2 -38 -9z"/>
<path d="M3335 1890 c-9 -30 2 -40 46 -40 27 0 42 5 46 16 8 21 -5 30 -49 38
-31 6 -37 4 -43 -14z"/>
</g>
</svg>
